<?xml version="1.0" encoding="utf-8"?>
<!-- Generator: Adobe Illustrator 21.0.2, SVG Export Plug-In . SVG Version: 6.00 Build 0)  -->
<svg version="1.1" id="Layer_1" xmlns="http://www.w3.org/2000/svg" xmlns:xlink="http://www.w3.org/1999/xlink" x="0px" y="0px"
	 viewBox="0 0 108 54" style="enable-background:new 0 0 108 54;" xml:space="preserve">
<style type="text/css">
	.st0{fill:#231F20;}
	.st1{font-family:'Calibri-Bold';}
	.st2{font-size:8.81px;}
	.st3{fill:#FDB515;}
	.st4{fill:#F89921;}
	.st5{fill:#F6851F;}
	.st6{fill:#F05354;}
	.st7{fill:#E42936;}
	.st8{fill:#CC2028;}
	.st9{fill:#FFFFFF;}
	.st10{fill:#DBE5E4;}
	.st11{fill:#293987;}
</style>
<title>386199941cardbitlogo</title>
<text transform="matrix(0.9528 0 0 1 4 19.1899)" class="st0 st1 st2">P</text>
<text transform="matrix(0.9528 0 0 1 8.3066 19.1899)" class="st0 st1 st2">a</text>
<text transform="matrix(0.9528 0 0 1 12.2988 19.1899)" class="st0 st1 st2">y with C</text>
<text transform="matrix(0.9528 0 0 1 40.2432 19.1899)" class="st0 st1 st2">r</text>
<text transform="matrix(0.9528 0 0 1 43.1396 19.1899)" class="st0 st1 st2">edit or Debit Ca</text>
<text transform="matrix(0.9528 0 0 1 97.6182 19.1899)" class="st0 st1 st2">r</text>
<text transform="matrix(0.9528 0 0 1 100.4961 19.1899)" class="st0 st1 st2">d</text>
<path class="st3" d="M93.9,36.3c0,4.8-3.9,8.7-8.7,8.7c-4.8,0-8.7-3.9-8.7-8.7l0,0c0-4.8,3.9-8.7,8.7-8.7
	C90,27.6,93.9,31.5,93.9,36.3C93.9,36.3,93.9,36.3,93.9,36.3z"/>
<path class="st4" d="M85.2,27.6c4.8,0,8.7,3.9,8.7,8.7l0,0c0,4.8-3.9,8.7-8.7,8.7c-4.8,0-8.7-3.9-8.7-8.7"/>
<path class="st5" d="M85.2,27.6c4.8,0,8.7,3.9,8.7,8.7l0,0c0,4.8-3.9,8.7-8.7,8.7c0,0,0,0,0,0"/>
<path class="st6" d="M73.5,27.6c-4.8,0-8.7,3.9-8.7,8.8s3.9,8.7,8.8,8.7l0,0c2.2,0,4.2-0.8,5.8-2.3l0,0c0.3-0.3,0.6-0.6,0.9-0.9
	h-1.8c-0.2-0.3-0.4-0.6-0.7-0.9h3.1c0.2-0.3,0.4-0.6,0.5-0.9h-4.1c-0.2-0.3-0.3-0.6-0.4-0.9h4.8c0.3-0.9,0.5-1.8,0.5-2.8
	c0-0.6-0.1-1.2-0.2-1.8h-5.3c0.1-0.3,0.1-0.6,0.2-0.9h4.8c-0.1-0.3-0.2-0.6-0.4-0.9h-4.1c0.2-0.3,0.3-0.6,0.5-0.9h3.1
	c-0.2-0.3-0.4-0.6-0.7-0.9h-1.7c0.3-0.3,0.6-0.6,0.9-0.9C77.8,28.5,75.7,27.7,73.5,27.6C73.5,27.6,73.5,27.6,73.5,27.6z"/>
<path class="st7" d="M64.9,36.3c0,4.8,3.9,8.7,8.7,8.7c0,0,0,0,0,0c2.2,0,4.2-0.8,5.8-2.3l0,0c0.3-0.3,0.6-0.6,0.9-0.9h-1.8
	c-0.2-0.3-0.4-0.6-0.7-0.9h3.1c0.2-0.3,0.4-0.6,0.5-0.9h-4.1c-0.2-0.3-0.3-0.6-0.4-0.9h4.8c0.3-0.9,0.5-1.8,0.5-2.8
	c0-0.6-0.1-1.2-0.2-1.8h-5.3c0.1-0.3,0.1-0.6,0.2-0.9h4.8c-0.1-0.3-0.2-0.6-0.4-0.9h-4.1c0.2-0.3,0.3-0.6,0.5-0.9h3.1
	c-0.2-0.3-0.4-0.6-0.7-0.9h-1.7c0.3-0.3,0.6-0.6,0.9-0.9c-1.6-1.5-3.7-2.3-5.8-2.3l0,0"/>
<path class="st8" d="M73.6,45c2.2,0,4.2-0.8,5.8-2.3l0,0c0.3-0.3,0.6-0.6,0.9-0.9h-1.8c-0.2-0.3-0.4-0.6-0.7-0.9h3.1
	c0.2-0.3,0.4-0.6,0.5-0.9h-4.1c-0.2-0.3-0.3-0.6-0.4-0.9h4.8c0.3-0.9,0.5-1.8,0.5-2.8c0-0.6-0.1-1.2-0.2-1.8h-5.3
	c0.1-0.3,0.1-0.6,0.2-0.9h4.8c-0.1-0.3-0.2-0.6-0.4-0.9h-4.1c0.2-0.3,0.3-0.6,0.5-0.9h3.1c-0.2-0.3-0.4-0.6-0.7-0.9h-1.7
	c0.3-0.3,0.6-0.6,0.9-0.9c-1.6-1.5-3.7-2.3-5.8-2.3l0,0"/>
<path class="st9" d="M76.7,38.5l0.1-0.8c-0.1,0-0.2,0-0.2,0c-0.3,0-0.4-0.2-0.3-0.3l0.3-1.6H77l0.1-0.9h-0.5l0.1-0.5h-0.9
	c0,0-0.6,3-0.6,3.4c-0.1,0.4,0.2,0.7,0.6,0.8c0,0,0.1,0,0.1,0C76.3,38.6,76.5,38.6,76.7,38.5z"/>
<path class="st9" d="M77,37c-0.1,0.8,0.5,1.5,1.3,1.6c0.1,0,0.2,0,0.3,0c0.3,0,0.7,0,1-0.1l0.2-0.9c-0.3,0.1-0.7,0.2-1,0.2
	c-1,0-0.8-0.7-0.8-0.7h1.9c0.1-0.3,0.1-0.6,0.2-0.9c0.1-0.7-0.5-1.3-1.2-1.3c-0.1,0-0.1,0-0.2,0C77.7,34.9,77,35.9,77,37z
	 M78.6,35.7c0.5,0,0.4,0.6,0.4,0.7h-1C78,36.4,78.1,35.7,78.6,35.7L78.6,35.7z"/>
<path class="st9" d="M84.4,38.5l0.2-1c-0.2,0.1-0.5,0.2-0.8,0.2c-0.7,0-0.9-0.5-0.9-1.1c0-1.1,0.6-1.7,1.2-1.7
	c0.3,0,0.6,0.1,0.9,0.3l0.1-1c-0.3-0.1-0.7-0.2-1.1-0.2C83,34,82,35,82,36.7c0,1.2,0.6,1.9,1.7,1.9C83.9,38.6,84.2,38.6,84.4,38.5z"
	/>
<path class="st9" d="M71.6,34.9c-0.4,0-0.8,0.1-1.1,0.2l-0.1,0.8c0.3-0.1,0.7-0.2,1-0.2c0.3,0,0.6,0,0.6,0.3s0,0.2,0,0.2h-0.4
	c-0.8,0-1.7,0.3-1.7,1.4c0,0.8,0.6,1,0.9,1c0.4,0,0.7-0.1,1-0.4v0.4h0.8l0.4-2.5c0-0.6-0.4-1.1-1-1.2C71.8,34.8,71.7,34.9,71.6,34.9
	z M71.8,37c0,0.1-0.1,0.9-0.7,0.9c-0.2,0-0.4-0.2-0.4-0.3c0,0,0,0,0,0c0-0.2,0.1-0.5,0.8-0.5C71.6,36.9,71.7,37,71.8,37L71.8,37z"/>
<path class="st9" d="M73.7,38.6c0.6,0.1,1.3-0.3,1.4-1c0-0.1,0-0.2,0-0.2c0-1.2-1.1-0.9-1.1-1.4c0-0.2,0.2-0.3,0.5-0.3h0.7l0.1-0.8
	c-0.3-0.1-0.6-0.1-0.9-0.1c-0.7,0-1.4,0.3-1.4,1.2s1.2,1,1.2,1.4s-0.3,0.3-0.6,0.3c-0.3,0-0.6-0.1-0.8-0.1l-0.1,0.8
	C72.7,38.5,72.9,38.6,73.7,38.6z"/>
<path class="st9" d="M92.1,34.1l-0.2,1.2c-0.2-0.3-0.5-0.4-0.9-0.5c-0.8,0-1.6,1-1.6,2.2c0,0.7,0.4,1.5,1.2,1.5
	c0.3,0,0.6-0.1,0.9-0.4v0.3h0.9l0.7-4.4L92.1,34.1z M91.7,36.6c0,0.5-0.2,1.2-0.7,1.2c-0.3,0-0.5-0.3-0.5-0.7c0-0.7,0.3-1.2,0.7-1.2
	S91.7,36,91.7,36.6L91.7,36.6z"/>
<path class="st9" d="M66.6,38.6l0.6-3.3l0.1,3.3h0.7l1.2-3.3l-0.5,3.3h1l0.7-4.4h-1.6l-0.9,2.7v-2.7h-1.4l-0.7,4.4L66.6,38.6z"/>
<path class="st9" d="M80.8,38.6c0.3-1.5,0.3-2.8,1-2.5c0.1-0.4,0.2-0.7,0.3-1.1H82c-0.4,0-0.7,0.5-0.7,0.5l0.1-0.5h-0.9l-0.6,3.6
	L80.8,38.6L80.8,38.6z"/>
<path class="st9" d="M86.6,34.9c-0.4,0-0.8,0.1-1.1,0.2l-0.1,0.8c0.3-0.1,0.7-0.2,1-0.2c0.3,0,0.6,0,0.6,0.3s0,0.2,0,0.2h-0.4
	c-0.8,0-1.7,0.3-1.7,1.4c0,0.8,0.6,1,0.9,1c0.4,0,0.7-0.1,1-0.4v0.4h0.8l0.4-2.5c0.1-0.6-0.4-1.1-1-1.2
	C86.8,34.8,86.7,34.8,86.6,34.9z M86.8,37c0,0.1-0.1,0.9-0.7,0.9c-0.2,0-0.4-0.2-0.4-0.3c0,0,0,0,0,0c0-0.2,0.1-0.5,0.8-0.5
	C86.8,37,86.8,37,86.8,37L86.8,37z"/>
<path class="st9" d="M88.6,38.6c0.3-1.5,0.3-2.8,1-2.5c0.1-0.4,0.2-0.7,0.3-1.1h-0.2c-0.4,0-0.7,0.5-0.7,0.5l0.1-0.5h-0.9l-0.6,3.6
	L88.6,38.6L88.6,38.6z"/>
<path class="st10" d="M75.2,37.9c-0.1,0.4,0.2,0.7,0.6,0.8c0,0,0.1,0,0.1,0c0.2,0,0.5,0,0.7-0.1l0.1-0.8c-0.1,0-0.2,0-0.2,0
	c-0.3,0-0.4-0.2-0.3-0.3l0.3-1.6H77l0.1-0.9h-0.5l0.1-0.5"/>
<path class="st10" d="M77.4,37c0,1.3,0.4,1.6,1.2,1.6c0.3,0,0.7,0,1-0.1l0.2-0.9c-0.3,0.1-0.7,0.2-1,0.2c-1,0-0.8-0.7-0.8-0.7h1.9
	c0.1-0.3,0.1-0.6,0.2-0.9c0.1-0.7-0.5-1.3-1.2-1.3c-0.1,0-0.1,0-0.2,0C77.7,34.9,77.4,35.9,77.4,37z M78.6,35.7
	c0.5,0,0.6,0.6,0.6,0.7H78C78,36.4,78.1,35.7,78.6,35.7z"/>
<path class="st10" d="M84.4,38.5l0.2-1c-0.2,0.1-0.5,0.2-0.8,0.2c-0.7,0-0.9-0.5-0.9-1.1c0-1.1,0.6-1.7,1.2-1.7
	c0.3,0,0.6,0.1,0.9,0.3l0.1-1c-0.3-0.1-0.7-0.2-1.1-0.2c-1.1,0-1.7,0.9-1.7,2.7c0,1.2,0.1,1.9,1.2,1.9
	C83.9,38.6,84.2,38.6,84.4,38.5z"/>
<path class="st10" d="M70.3,35.9c0.3-0.1,0.7-0.2,1-0.2c0.3,0,0.6,0,0.6,0.3s0,0.2,0,0.2h-0.4c-0.8,0-1.7,0.3-1.7,1.4
	c0,0.8,0.6,1,0.9,1c0.4,0,0.7-0.1,1-0.4v0.4h0.8l0.4-2.5c0-1.1-0.9-1.1-1.3-1.1 M72.3,37c-0.2,0.5-0.6,0.8-1.1,0.9
	c-0.2,0-0.4-0.2-0.4-0.3c0,0,0,0,0,0c0-0.2,0.1-0.5,0.8-0.5C71.9,37,72,37,72.3,37L72.3,37z"/>
<path class="st10" d="M72.7,38.5c0.3,0.1,0.7,0.1,1.1,0.1c0.6,0.1,1.3-0.3,1.4-1c0-0.1,0-0.2,0-0.2c0-1.2-1.1-0.9-1.1-1.4
	c0-0.2,0.2-0.3,0.5-0.3h0.7l0.1-0.8c-0.3-0.1-0.6-0.1-0.9-0.1c-0.7,0-0.9,0.3-0.9,1.2s0.7,1,0.7,1.4s-0.3,0.3-0.6,0.3"/>
<path class="st10" d="M91.9,35.4c-0.2-0.3-0.5-0.4-0.9-0.5c-0.8,0-1.1,1-1.1,2.2c0,0.7-0.1,1.5,0.7,1.5c0.3,0,0.6-0.1,0.9-0.4v0.3
	h0.9l0.7-4.4 M91.9,36.6c0,0.5-0.4,1.2-0.9,1.2c-0.3,0-0.5-0.3-0.5-0.7c0-0.7,0.3-1.2,0.7-1.2C91.6,35.8,91.9,36.1,91.9,36.6
	C91.9,36.6,91.9,36.6,91.9,36.6L91.9,36.6z"/>
<path class="st10" d="M66.6,38.6l0.6-3.3l0.1,3.3h0.7l1.2-3.3l-0.5,3.3h1l0.7-4.4h-1.2l-1.3,2.7v-2.7h-0.5l-1.6,4.4H66.6z"/>
<path class="st10" d="M79.9,38.6h1c0.3-1.5,0.3-2.8,1-2.5c0.1-0.4,0.2-0.7,0.3-1.1H82c-0.4,0-0.7,0.5-0.7,0.5l0.1-0.5"/>
<path class="st10" d="M85.3,35.9c0.3-0.1,0.7-0.2,1-0.2c0.3,0,0.6,0,0.6,0.3s0,0.2,0,0.2h-0.4c-0.8,0-1.7,0.3-1.7,1.4
	c0,0.8,0.6,1,0.9,1c0.4,0,0.7-0.1,1-0.4v0.4h0.8l0.4-2.5c0-1.1-0.9-1.1-1.3-1.1 M87.3,37c-0.2,0.5-0.6,0.8-1.1,0.9
	c-0.2,0-0.4-0.2-0.4-0.3c0,0,0,0,0,0c0-0.2,0.1-0.5,0.8-0.5c0.2,0,0.4,0,0.5,0L87.3,37z"/>
<path class="st10" d="M87.6,38.6h1c0.3-1.5,0.3-2.8,1-2.5c0.1-0.4,0.2-0.7,0.3-1.1h-0.2c-0.4,0-0.7,0.5-0.7,0.5l0.1-0.5"/>
<polygon class="st11" points="29.5,43.2 31.6,30.4 35.1,30.4 33,43.2 "/>
<path class="st11" d="M45.4,30.7c-1-0.4-2.1-0.5-3.1-0.5c-3.5,0-5.9,1.7-5.9,4.2c0,1.8,1.7,2.9,3.1,3.5s1.8,1,1.8,1.6
	c0,0.9-1.1,1.2-2.1,1.2c-1.1,0-2.3-0.2-3.3-0.7l-0.5-0.2l-0.5,2.9c1.2,0.5,2.6,0.7,3.9,0.7c3.7,0,6.1-1.7,6.1-4.4
	c0-1.5-0.9-2.6-2.9-3.5c-1.2-0.6-2-1-2-1.6s0.6-1.1,2-1.1c0.9,0,1.8,0.1,2.6,0.5l0.3,0.2L45.4,30.7L45.4,30.7z"/>
<path class="st11" d="M51.4,30.4c-0.8-0.1-1.5,0.4-1.8,1.1l-5.2,11.7h3.7l0.7-2h4.4l0.4,2H57l-2.9-12.8H51.4z M49.8,38.7l1.4-3.6
	c0,0,0.3-0.7,0.5-1.2l0.2,1.1l0.8,3.7C52.7,38.7,49.8,38.7,49.8,38.7z"/>
<path class="st11" d="M23.1,39.2l-0.3-1.8c-0.9-2.3-2.6-4.2-4.8-5.4L21,43.2h3.7l5.6-12.8h-3.7L23.1,39.2z"/>
<path class="st4" d="M14.1,30.4v0.2c4.4,1.1,7.5,3.7,8.7,6.8l-1.3-5.9c-0.2-0.7-0.9-1.2-1.6-1.1L14.1,30.4z"/>
</svg>
