<?xml version="1.0" encoding="utf-8"?>
<!-- Generator: Adobe Illustrator 21.0.2, SVG Export Plug-In . SVG Version: 6.00 Build 0)  -->
<svg version="1.1" id="Layer_1" xmlns="http://www.w3.org/2000/svg" xmlns:xlink="http://www.w3.org/1999/xlink" x="0px" y="0px"
	 viewBox="0 0 236.7 66.5" style="enable-background:new 0 0 236.7 66.5;" xml:space="preserve">
<style type="text/css">
	.st0{fill:url(#SVGID_1_);stroke:#F15A29;stroke-width:0.5;stroke-miterlimit:10;}
	.st1{fill:#FFFFFF;}
	.st2{fill:#231F20;}
	.st3{font-family:'Calibri-Bold';}
	.st4{font-size:12px;}
	.st5{fill:#FDB515;}
	.st6{fill:#F89921;}
	.st7{fill:#F6851F;}
	.st8{fill:#F05354;}
	.st9{fill:#E42936;}
	.st10{fill:#CC2028;}
	.st11{fill:#DBE5E4;}
	.st12{fill:#293987;}
	.st13{fill:#FA8A34;}
</style>
<title>845593211cardbitlogo</title>
<linearGradient id="SVGID_1_" gradientUnits="userSpaceOnUse" x1="-1616.6799" y1="-446.95" x2="-1380.48" y2="-446.95" gradientTransform="matrix(-1 0 0 -1 -1380.1799 -413.75)">
	<stop  offset="0" style="stop-color:#DBAF0E"/>
	<stop  offset="7.000000e-02" style="stop-color:#EEBC0D"/>
	<stop  offset="0.15" style="stop-color:#F9C40C"/>
	<stop  offset="0.23" style="stop-color:#FDC70C"/>
	<stop  offset="0.57" style="stop-color:#F3903F"/>
	<stop  offset="1" style="stop-color:#F47D36"/>
</linearGradient>
<path class="st0" d="M231.4,66.2H5.3c-2.8,0-5-2.2-5-5v-56c0-2.8,2.2-5,5-5h226.2c2.8,0,5,2.2,5,5v56
	C236.4,64,234.2,66.2,231.4,66.2z"/>
<path class="st1" d="M7.9,35.7h221.8c2.8,0,5,2.2,5,5v17.8c0,2.8-2.2,5-5,5H7.9c-2.8,0-5-2.2-5-5V40.7C2.9,37.9,5.1,35.7,7.9,35.7z"
	/>
<rect x="2.9" y="26.8" class="st1" width="231.8" height="22.5"/>
<text transform="matrix(1 0 0 1 46.1453 16.75)" class="st2 st3 st4">P</text>
<text transform="matrix(1 0 0 1 52.2953 16.75)" class="st2 st3 st4">a</text>
<text transform="matrix(1 0 0 1 58.0053 16.75)" class="st2 st3 st4">y with C</text>
<text transform="matrix(1 0 0 1 97.9553 16.75)" class="st2 st3 st4">r</text>
<text transform="matrix(1 0 0 1 102.0853 16.75)" class="st2 st3 st4">edit or Debit Ca</text>
<text transform="matrix(1 0 0 1 179.9553 16.75)" class="st2 st3 st4">r</text>
<text transform="matrix(1 0 0 1 184.0753 16.75)" class="st2 st3 st4">d</text>
<path class="st5" d="M203.1,45.2c-0.2,7.4-6.4,13.3-13.8,13.1c-7.1-0.2-12.9-5.9-13.1-13.1l0,0c-0.2-7.4,5.6-13.6,13.1-13.8
	c7.4-0.2,13.6,5.6,13.8,13.1C203.1,44.8,203.1,45,203.1,45.2z"/>
<path class="st6" d="M189.7,31.9c7.4,0,13.4,6,13.4,13.4l0,0c-0.2,7.4-6.4,13.3-13.8,13.1c-7.1-0.2-12.9-5.9-13.1-13.1"/>
<path class="st7" d="M189.7,31.9c7.4,0,13.4,6,13.4,13.4l0,0c0,7.4-6,13.4-13.4,13.4l0,0"/>
<path class="st8" d="M171.6,31.9c-7.4,0.2-13.2,6.4-13,13.9c0.2,7.1,6,12.8,13.1,13c3.3,0,6.6-1.2,9.1-3.5l0,0
	c0.5-0.4,0.9-0.9,1.4-1.4h-2.8c-0.4-0.4-0.7-0.9-1-1.3h4.8c0.3-0.4,0.6-0.9,0.8-1.4h-6.3c-0.2-0.5-0.4-0.9-0.6-1.4h7.4
	c0.5-1.4,0.7-2.8,0.7-4.3c0-1-0.1-1.9-0.3-2.8h-8.2c0.1-0.5,0.2-1,0.4-1.4h7.4c-0.1-0.5-0.3-1-0.6-1.4h-6.3c0.2-0.5,0.5-1,0.8-1.4
	h4.8c-0.3-0.5-0.7-1-1.1-1.4h-2.6c0.4-0.5,0.9-0.9,1.4-1.3c-2.4-2.3-5.7-3.5-9-3.5C171.7,31.9,171.7,31.9,171.6,31.9z"/>
<path class="st9" d="M158.3,45.2c0,7.4,6,13.4,13.4,13.4l0,0c3.3,0,6.6-1.2,9-3.4l0,0c0.5-0.4,0.9-0.9,1.4-1.4h-2.8
	c-0.4-0.4-0.7-0.9-1-1.3h4.8c0.3-0.4,0.6-0.9,0.8-1.4h-6.3c-0.2-0.5-0.4-0.9-0.6-1.4h7.4c0.5-1.4,0.7-2.8,0.7-4.3
	c0-1-0.1-1.9-0.3-2.8h-8.2c0.1-0.5,0.2-1,0.4-1.4h7.4c-0.1-0.5-0.3-1-0.6-1.4h-6.3c0.2-0.5,0.5-1,0.8-1.4h4.8
	c-0.3-0.5-0.7-1-1.1-1.4h-2.6c0.4-0.5,0.9-0.9,1.4-1.3c-2.4-2.3-5.7-3.5-9-3.5h-0.1"/>
<path class="st10" d="M171.8,58.7c3.3,0,6.6-1.2,9.1-3.5l0,0c0.5-0.4,0.9-0.9,1.4-1.4h-2.8c-0.4-0.4-0.7-0.9-1-1.3h4.8
	c0.3-0.4,0.6-0.9,0.8-1.4h-6.3c-0.2-0.5-0.4-0.9-0.6-1.4h7.4c0.5-1.4,0.7-2.8,0.7-4.3c0-1-0.1-1.9-0.3-2.8h-8.2
	c0.1-0.5,0.2-1,0.4-1.4h7.4c-0.1-0.5-0.3-1-0.6-1.4h-6.3c0.2-0.5,0.5-1,0.8-1.4h4.8c-0.3-0.5-0.7-1-1.1-1.4h-2.6
	c0.4-0.5,0.9-0.9,1.4-1.3c-2.4-2.3-5.7-3.5-9-3.5h-0.1"/>
<path class="st1" d="M176.5,48.7l0.2-1.2c-0.1,0-0.2,0.1-0.4,0.1c-0.5,0-0.6-0.3-0.5-0.4l0.4-2.5h0.8l0.2-1.3h-0.7l0.1-0.8h-1.4
	c0,0-0.9,4.7-0.9,5.3c-0.1,0.6,0.3,1.1,0.9,1.2c0.1,0,0.1,0,0.2,0C175.9,48.9,176.2,48.8,176.5,48.7z"/>
<path class="st1" d="M177,46.4c-0.1,1.2,0.8,2.4,2,2.5c0.2,0,0.3,0,0.5,0c0.5,0,1,0,1.5-0.2l0.3-1.3c-0.5,0.2-1,0.3-1.5,0.4
	c-1.6,0-1.3-1.1-1.3-1.1h2.9c0.1-0.4,0.2-0.8,0.2-1.3c0.1-1.1-0.7-2-1.8-2.1c-0.1,0-0.2,0-0.3,0C178.1,43.1,177,44.7,177,46.4z
	 M179.5,44.4c0.8,0,0.6,0.9,0.6,1h-1.6C178.6,45.2,178.7,44.4,179.5,44.4L179.5,44.4z"/>
<path class="st1" d="M188.5,48.7l0.3-1.6c-0.4,0.2-0.8,0.3-1.2,0.4c-1,0-1.4-0.8-1.4-1.6c0-1.7,0.9-2.6,1.9-2.6
	c0.5,0,0.9,0.2,1.3,0.4l0.2-1.5c-0.5-0.2-1.1-0.3-1.6-0.4c-1.6,0-3.3,1.4-3.3,4.1c0,1.8,0.9,3,2.6,3
	C187.6,48.9,188.1,48.8,188.5,48.7z"/>
<path class="st1" d="M168.7,43.1c-0.6,0-1.2,0.1-1.7,0.3l-0.2,1.2c0.5-0.2,1-0.3,1.6-0.3c0.5,0,0.9,0.1,0.9,0.5s-0.1,0.4-0.1,0.4
	h-0.6c-1.2,0-2.6,0.5-2.6,2.1c0,1.3,0.9,1.6,1.4,1.6s1.1-0.2,1.4-0.6l-0.1,0.6h1.3l0.6-3.9c0.1-0.9-0.6-1.7-1.5-1.8
	C169,43.1,168.8,43.1,168.7,43.1z M169,46.3c0,0.2-0.1,1.3-1,1.3c-0.3,0-0.6-0.2-0.6-0.5l0,0c0-0.4,0.2-0.8,1.3-0.8
	C168.8,46.2,168.9,46.3,169,46.3L169,46.3z"/>
<path class="st1" d="M172,48.8c1,0.2,1.9-0.5,2.1-1.5c0-0.1,0-0.2,0-0.4c0-1.8-1.7-1.4-1.7-2.1c0-0.4,0.3-0.5,0.8-0.5
	c0.2,0,1,0.1,1,0.1l0.2-1.3c-0.4-0.1-0.9-0.2-1.4-0.1c-1.1,0-2.1,0.4-2.1,1.8c0,1.6,1.8,1.5,1.8,2.1c0,0.4-0.5,0.5-0.9,0.5
	s-0.9-0.1-1.3-0.2l-0.2,1.3C170.4,48.7,170.8,48.8,172,48.8z"/>
<path class="st1" d="M200.3,42l-0.3,1.9c-0.3-0.4-0.8-0.7-1.4-0.7c-1.3,0-2.4,1.6-2.4,3.4c0,1.1,0.6,2.3,1.8,2.3
	c0.5,0,1-0.2,1.4-0.6l-0.1,0.5h1.4l1.1-6.8L200.3,42z M199.7,45.7c0,0.8-0.4,1.8-1.1,1.8c-0.5,0-0.8-0.4-0.8-1.1
	c0-1.1,0.5-1.8,1.1-1.8S199.7,44.9,199.7,45.7z"/>
<path class="st1" d="M161,48.8l0.9-5.1l0.1,5.1h1l1.9-5.1l-0.8,5.1h1.5l1.1-6.8h-2.3l-1.4,4.2l-0.1-4.2h-2.1l-1.1,6.8H161z"/>
<path class="st1" d="M183,48.8c0.4-2.3,0.5-4.3,1.5-3.9c0.1-0.6,0.3-1.1,0.5-1.6h-0.3c-0.6,0-1.1,0.8-1.1,0.8l0.1-0.8h-1.4l-0.9,5.5
	H183L183,48.8z"/>
<path class="st1" d="M191.8,43.1c-0.6,0-1.2,0.1-1.7,0.3l-0.2,1.2c0.5-0.2,1-0.3,1.6-0.3c0.5,0,0.9,0.1,0.9,0.5s-0.1,0.4-0.1,0.4
	h-0.6c-1.2,0-2.6,0.5-2.6,2.1c0,1.3,0.9,1.6,1.4,1.6c0.6,0,1.1-0.2,1.5-0.6l-0.1,0.6h1.3l0.6-3.9c0.1-0.9-0.6-1.7-1.5-1.8
	C192.1,43.1,192,43.1,191.8,43.1z M192.2,46.3c0,0.2-0.1,1.3-1,1.3c-0.3,0-0.6-0.2-0.6-0.5l0,0c0-0.4,0.2-0.8,1.3-0.8
	C192.1,46.2,192.1,46.2,192.2,46.3L192.2,46.3z"/>
<path class="st1" d="M194.9,48.8c0.4-2.3,0.5-4.3,1.5-3.9c0.1-0.6,0.3-1.1,0.5-1.6h-0.3c-0.6,0-1.1,0.8-1.1,0.8l0.1-0.8h-1.4
	l-0.9,5.5H194.9L194.9,48.8z"/>
<path class="st11" d="M174.3,47.7c-0.1,0.6,0.3,1.1,0.9,1.2c0.1,0,0.1,0,0.2,0c0.4,0,0.7-0.1,1.1-0.2l0.2-1.2
	c-0.1,0-0.2,0.1-0.4,0.1c-0.5,0-0.6-0.3-0.5-0.4l0.4-2.5h0.8l0.2-1.3h-0.7l0.1-0.8"/>
<path class="st11" d="M177.7,46.4c0,2,0.6,2.5,1.8,2.5c0.5,0,1,0,1.5-0.2l0.3-1.3c-0.5,0.2-1,0.3-1.5,0.4c-1.6,0-1.3-1.1-1.3-1.1
	h2.9c0.1-0.4,0.2-0.8,0.2-1.3c0.1-1.1-0.7-2-1.8-2.1c-0.1,0-0.2,0-0.3,0C178.1,43.1,177.7,44.7,177.7,46.4z M179.5,44.4
	c0.8,0,0.9,0.9,0.9,1h-1.9C178.6,45.2,178.7,44.4,179.5,44.4L179.5,44.4z"/>
<path class="st11" d="M188.5,48.7l0.3-1.6c-0.4,0.2-0.8,0.3-1.2,0.4c-1,0-1.4-0.8-1.4-1.6c0-1.7,0.9-2.6,1.9-2.6
	c0.5,0,0.9,0.2,1.3,0.4l0.2-1.5c-0.5-0.2-1.1-0.3-1.6-0.4c-1.6,0-2.6,1.4-2.6,4.1c0,1.8,0.1,3,1.9,3
	C187.6,48.9,188.1,48.8,188.5,48.7z"/>
<path class="st11" d="M166.8,44.7c0.5-0.2,1-0.3,1.6-0.3c0.5,0,0.9,0.1,0.9,0.5s-0.1,0.4-0.1,0.4h-0.6c-1.2,0-2.6,0.5-2.6,2.1
	c0,1.3,0.9,1.6,1.4,1.6s1.1-0.3,1.4-0.7l-0.1,0.6h1.3l0.6-3.9c0-1.6-1.4-1.7-2-1.7 M169.7,46.2c-0.3,0.7-0.9,1.2-1.7,1.3
	c-0.3,0-0.6-0.2-0.6-0.5l0,0c0-0.4,0.2-0.8,1.3-0.8C169,46.2,169.4,46.3,169.7,46.2z"/>
<path class="st11" d="M170.4,48.7c0.5,0.1,1.1,0.2,1.6,0.1c1,0.2,1.9-0.5,2.1-1.5c0-0.1,0-0.2,0-0.4c0-1.8-1.7-1.4-1.7-2.1
	c0-0.4,0.3-0.5,0.8-0.5c0.2,0,1,0.1,1,0.1l0.2-1.3c-0.4-0.1-0.9-0.2-1.4-0.1c-1.1,0-1.4,0.4-1.4,1.8c0,1.6,1.1,1.5,1.1,2.1
	c0,0.4-0.5,0.5-0.9,0.5"/>
<path class="st11" d="M200,43.9c-0.3-0.4-0.8-0.7-1.4-0.7c-1.3,0-1.7,1.6-1.7,3.4c0,1.1-0.1,2.3,1.1,2.3c0.5,0,1-0.2,1.4-0.6
	l-0.1,0.5h1.4l1.1-6.8 M200,45.7c0,0.8-0.6,1.8-1.4,1.8c-0.5,0-0.8-0.4-0.8-1.1c0-1.1,0.5-1.8,1.1-1.8C199.5,44.5,200,45,200,45.7
	L200,45.7L200,45.7z"/>
<path class="st11" d="M161,48.8l0.9-5.1l0.1,5.1h1l1.9-5.1l-0.8,5.1h1.5l1.1-6.8h-1.8l-2,4.2l-0.1-4.2H162l-2.4,6.8H161z"/>
<path class="st11" d="M181.5,48.8h1.5c0.4-2.3,0.5-4.3,1.5-3.9c0.1-0.6,0.3-1.1,0.5-1.6h-0.3c-0.6,0-1.1,0.8-1.1,0.8l0.1-0.8"/>
<path class="st11" d="M189.9,44.7c0.5-0.2,1-0.3,1.6-0.3c0.5,0,0.9,0.1,0.9,0.5s-0.1,0.4-0.1,0.4h-0.6c-1.2,0-2.6,0.5-2.6,2.1
	c0,1.3,0.9,1.6,1.4,1.6c0.6,0,1.1-0.2,1.5-0.6l-0.1,0.6h1.3l0.6-3.9c0-1.6-1.4-1.7-2-1.7 M192.8,46.2c-0.3,0.7-0.9,1.2-1.7,1.3
	c-0.3,0-0.6-0.2-0.6-0.5l0,0c0-0.4,0.2-0.8,1.3-0.8C192.2,46.2,192.5,46.3,192.8,46.2z"/>
<path class="st11" d="M193.4,48.8h1.5c0.4-2.3,0.5-4.3,1.5-3.9c0.1-0.6,0.3-1.1,0.5-1.6h-0.3c-0.6,0-1.1,0.8-1.1,0.8l0.1-0.8"/>
<polygon class="st12" points="98.2,54.8 101.6,35.1 106.9,35.1 103.6,54.8 "/>
<path class="st12" d="M122.8,35.6c-1.6-0.6-3.2-0.8-4.8-0.8c-5.3,0-9.1,2.7-9.1,6.5c0,2.8,2.7,4.4,4.7,5.3s2.8,1.6,2.8,2.4
	c0,1.3-1.7,1.9-3.2,1.9c-1.7,0.1-3.5-0.3-5.1-1l-0.7-0.3l-0.8,4.4c1.9,0.7,4,1.1,6,1c5.7,0,9.4-2.6,9.4-6.7c0-2.2-1.4-3.9-4.5-5.3
	c-1.9-0.9-3-1.5-3-2.4s1-1.7,3.1-1.7c1.4,0,2.7,0.2,4,0.8l0.5,0.2L122.8,35.6L122.8,35.6z"/>
<path class="st12" d="M132,35.1c-1.2-0.1-2.4,0.6-2.8,1.7l-8,18h5.7l1.1-3h6.8l0.6,3h5.1l-4.4-19.7H132L132,35.1z M129.6,47.8
	l2.2-5.5c0,0,0.4-1.1,0.7-1.9l0.4,1.7l1.2,5.7H129.6L129.6,47.8z"/>
<path class="st12" d="M88.4,48.6l-0.5-2.7c-1.4-3.6-4-6.5-7.5-8.3l4.8,17.2h5.7l8.6-19.7h-5.7L88.4,48.6z"/>
<path class="st6" d="M74.5,35.1v0.3C81.3,37,86,41.1,87.9,45.9l-2-9.1c-0.3-1.1-1.4-1.8-2.5-1.7C83.4,35.1,74.5,35.1,74.5,35.1z"/>
<g id="bitcoincash_bch_bitcoin">
	<g id="bitcoincash_bch">
		<circle id="Эллипс_5" class="st13" cx="46" cy="45" r="13.5"/>
		<path id="Фигура_1_копия" class="st1" d="M52.3,47.7c-0.5,1.3-3.4,2.1-3.4,2.1l0.6,2.4L48,52.6l-0.6-2.4l-1.2,0.3
			l0.6,2.4l-1.5,0.4l-0.6-2.4l-3,0.7l-0.1-1.9c0,0,0.5-0.1,1-0.2c0.5-0.1,0.5-0.7,0.4-0.9s-1.4-5.7-1.5-6.2c-0.1-0.6-0.7-0.7-1-0.7
			c-0.3,0-1.1,0.3-1.1,0.3l-0.4-1.6l2.9-0.7l-0.6-2.4l1.5-0.4l0.6,2.4c0.4-0.1,0.8-0.2,1.2-0.3l-0.6-2.4l1.5-0.4l0.6,2.5
			c0.7-0.1,2-0.2,2.8,0.1c1,0.4,1.6,1.5,1.7,2.4c0.1,0.9-0.9,1.9-0.9,1.9s1.5,0.1,2.1,0.9C53.2,45.6,52.6,47.1,52.3,47.7z M44,40.9
			l0.7,3c0,0,1.3-0.2,2.1-0.7c0.8-0.5,1.1-1,1-1.7c-0.1-0.7-0.9-1.1-1.8-1.1C45.4,40.5,44.7,40.7,44,40.9L44,40.9z M45,45.4l0.8,3.2
			c0,0,2.1-0.4,2.7-0.8c0.7-0.4,1.4-1.3,1-2.2c-0.4-0.9-1.7-0.8-2.5-0.7C46.3,45.1,45.7,45.2,45,45.4z"/>
	</g>
</g>
</svg>
