<svg id="Layer_1" data-name="Layer 1" xmlns="http://www.w3.org/2000/svg" viewBox="0 0 228.85 60.99"><defs><style>.cls-1{fill:#273b87;}.cls-2{fill:#f89924;}.cls-3{fill:#fdb515;}.cls-4{fill:#f68521;}.cls-5{fill:#f05555;}.cls-6{fill:#cd2029;}.cls-7{fill:#e32a36;}.cls-8{fill:#fff;}.cls-9{fill:#dae5e3;}</style></defs><title>2026835187cardbitlogo</title><polygon class="cls-1" points="42.59 50.9 48.58 15.46 58.31 15.46 52.3 50.9 42.59 50.9"/><path class="cls-1" d="M148,87.39a25.23,25.23,0,0,0-8.75-1.49c-9.6,0-16.37,4.81-16.42,11.7,0,5.09,4.82,7.93,8.52,9.62s5,2.85,5,4.4c0,2.37-3,3.46-5.81,3.46a20.51,20.51,0,0,1-9.15-1.86l-1.25-.56-1.31,7.9a30.9,30.9,0,0,0,10.82,1.89c10.21,0,16.84-4.75,16.92-12.11,0-4-2.5-7.1-8.16-9.63-3.4-1.59-5.46-2.64-5.45-4.35,0-1.47,1.76-3,5.56-3a18,18,0,0,1,7.27,1.36l.87.41Z" transform="translate(-61.07 -71)"/><path class="cls-1" d="M164.53,86.47a4.82,4.82,0,0,0-5,3l-14.43,32.41h10.28l2-5.44h12.3l1.14,5.44H180l-8-35.44Zm-4.41,22.92L164,99.48s.8-2,1.25-3.39l.66,3,2.25,10.23h-8Z" transform="translate(-61.07 -71)"/><path class="cls-1" d="M85.94,110.77l-.85-4.86c-1.77-5.66-7.27-11.8-13.45-14.86l8.58,30.86H90.51l15.43-35.44H95.65Z" transform="translate(-61.07 -71)"/><path class="cls-2" d="M61.07,86.47V87c12.2,2.94,20.66,10.35,24,18.86L81.55,89.5c-.59-2.24-2.37-2.95-4.47-3Z" transform="translate(-61.07 -71)"/><path class="cls-3" d="M289.92,101.81a30.19,30.19,0,0,1-60.37,0h0a30.19,30.19,0,1,1,60.37-1.23Q289.93,101.19,289.92,101.81Z" transform="translate(-61.07 -71)"/><path class="cls-2" d="M259.73,71.62a30.26,30.26,0,0,1,30.19,30.19h0a30.19,30.19,0,0,1-60.37,0" transform="translate(-61.07 -71)"/><path class="cls-4" d="M259.73,71.62a30.26,30.26,0,0,1,30.19,30.19h0A30.16,30.16,0,0,1,259.78,132h-.05" transform="translate(-61.07 -71)"/><path class="cls-5" d="M219.17,71.62a30.19,30.19,0,0,0,.32,60.37,30.54,30.54,0,0,0,20.28-7.82h0a28.74,28.74,0,0,0,3-3.2h-6.25a36.84,36.84,0,0,1-2.24-3H245a20.45,20.45,0,0,0,1.76-3.2h-14.2a19,19,0,0,1-1.25-3.2h16.61a31.71,31.71,0,0,0,1.6-9.58,41.24,41.24,0,0,0-.64-6.39H230.35a23.36,23.36,0,0,1,.8-3.2h16.61a19,19,0,0,0-1.25-3.2H232.44A31.68,31.68,0,0,1,234.2,86h10.73a15.18,15.18,0,0,0-2.5-3.16h-5.91a27.22,27.22,0,0,1,3-3,29.47,29.47,0,0,0-20.28-7.82C219.33,71.62,219.33,71.62,219.17,71.62Z" transform="translate(-61.07 -71)"/><path class="cls-6" d="M219.49,132a30.54,30.54,0,0,0,20.28-7.82h0a28.74,28.74,0,0,0,3-3.2h-6.25a36.84,36.84,0,0,1-2.24-3H245a20.45,20.45,0,0,0,1.76-3.2h-14.2a19,19,0,0,1-1.25-3.2h16.61a31.71,31.71,0,0,0,1.6-9.58,41.24,41.24,0,0,0-.64-6.39H230.35a23.36,23.36,0,0,1,.8-3.2h16.61a19,19,0,0,0-1.25-3.2H232.44A31.68,31.68,0,0,1,234.2,86h10.73a15.18,15.18,0,0,0-2.5-3.17h-5.91a27.22,27.22,0,0,1,3-3,29.47,29.47,0,0,0-20.28-7.82h-.16" transform="translate(-61.07 -71)"/><path class="cls-7" d="M188.7,101.81A30.16,30.16,0,0,0,218.84,132h.05a30.54,30.54,0,0,0,20.28-7.82h0a28.74,28.74,0,0,0,3-3.2H236a36.84,36.84,0,0,1-2.27-3h10.7a20.46,20.46,0,0,0,1.8-3.2H232a19,19,0,0,1-1.25-3.2h16.61a31.71,31.71,0,0,0,1.6-9.58,41.24,41.24,0,0,0-.64-6.39H229.75a23.36,23.36,0,0,1,.8-3.2h16.61a19,19,0,0,0-1.25-3.2H231.83a31.68,31.68,0,0,1,1.76-3.2h10.7a15.18,15.18,0,0,0-2.4-3.2H236a27.22,27.22,0,0,1,3-3,29.47,29.47,0,0,0-20.32-7.8h-.16" transform="translate(-61.07 -71)"/><path class="cls-8" d="M230.19,109.47l.47-2.71a6.92,6.92,0,0,1-.8.16c-1.11,0-1.25-.64-1.11-1l1-5.59h1.76l.47-3h-1.6l.32-1.91h-3.24s-1.91,10.55-1.91,11.82A2.4,2.4,0,0,0,228,110,4.9,4.9,0,0,0,230.19,109.47Z" transform="translate(-61.07 -71)"/><path class="cls-8" d="M231.3,104.31c0,4.47,3,5.59,5.59,5.59a8.3,8.3,0,0,0,3.35-.47l.64-3a9.57,9.57,0,0,1-3.35.8c-3.51,0-2.87-2.5-2.87-2.5h6.54a20.7,20.7,0,0,0,.47-2.87A4.32,4.32,0,0,0,237,97.17C233.69,96.81,231.3,100.37,231.3,104.31Zm5.59-4.64c1.76,0,1.44,2.07,1.44,2.24h-3.51c0-.1.32-2.17,2.09-2.17Z" transform="translate(-61.07 -71)"/><path class="cls-8" d="M257.18,109.47l.64-3.51a7.85,7.85,0,0,1-2.71.8c-2.24,0-3.2-1.76-3.2-3.67,0-3.84,1.91-5.91,4.15-5.91a5.34,5.34,0,0,1,2.87,1l.47-3.35a11.25,11.25,0,0,0-3.67-.8c-3.67,0-7.35,3.2-7.35,9.26,0,4,1.91,6.71,5.75,6.71A14.33,14.33,0,0,0,257.18,109.47Z" transform="translate(-61.07 -71)"/><path class="cls-8" d="M212.62,96.81a11.31,11.31,0,0,0-3.84.64l-.47,2.71a9.43,9.43,0,0,1,3.51-.64c1.11,0,2.07.16,2.07,1.11,0,.64-.16.8-.16.8H212.3c-2.71,0-5.75,1.11-5.75,4.79,0,2.87,1.91,3.51,3,3.51a4.8,4.8,0,0,0,3.35-1.44l-.16,1.25h2.87l1.25-8.75C216.93,97,213.7,96.81,212.62,96.81Zm.64,7.19c0,.47-.32,3-2.24,3a1.25,1.25,0,0,1-1.25-1.25c0-.8.47-1.91,2.87-1.91a2.5,2.5,0,0,0,.61.17Z" transform="translate(-61.07 -71)"/><path class="cls-8" d="M219.94,109.79c.8,0,4.79.16,4.79-4.15,0-4-3.84-3.2-3.84-4.79,0-.8.64-1.11,1.76-1.11.47,0,2.24.16,2.24.16l.47-2.87a12.13,12.13,0,0,0-3-.32c-2.4,0-4.79,1-4.79,4.15,0,3.67,4,3.35,4,4.79,0,1-1.11,1.11-1.91,1.11a10.45,10.45,0,0,1-2.87-.47l-.47,2.87C216.46,109.47,217.26,109.79,219.94,109.79Z" transform="translate(-61.07 -71)"/><path class="cls-8" d="M283.67,94.31,283,98.62a4.42,4.42,0,0,0-3-1.6c-2.87,0-5.44,3.51-5.44,7.66,0,2.5,1.25,5.27,4,5.27a4.26,4.26,0,0,0,3-1.25l-.16,1.11h3.2L287,94.48Zm-1.44,8.46c0,1.76-.8,4-2.5,4-1.11,0-1.76-1-1.76-2.5,0-2.5,1.11-4.15,2.5-4.15,1.14-.07,1.79.72,1.79,2.65Z" transform="translate(-61.07 -71)"/><path class="cls-8" d="M195.22,109.63l1.91-11.5.32,11.5h2.24l4.15-11.5-1.76,11.5h3.35l2.5-15.33h-5.27l-3.2,9.42-.09-9.41h-4.64l-2.5,15.33Z" transform="translate(-61.07 -71)"/><path class="cls-8" d="M244.72,109.63c1-5.27,1.11-9.58,3.35-8.75a12.5,12.5,0,0,1,1.11-3.67h-.64c-1.44,0-2.5,1.91-2.5,1.91l.32-1.76h-3l-2.07,12.5h3.51Z" transform="translate(-61.07 -71)"/><path class="cls-8" d="M264.53,96.81a11.31,11.31,0,0,0-3.84.64l-.47,2.71a9.43,9.43,0,0,1,3.51-.64c1.11,0,2.07.16,2.07,1.11,0,.64-.16.8-.16.8H264.2c-2.71,0-5.75,1.11-5.75,4.79,0,2.87,1.91,3.51,3,3.51a4.8,4.8,0,0,0,3.35-1.44l-.16,1.25h2.87l1.25-8.75C269,97,265.64,96.81,264.53,96.81Zm.8,7.19c0,.47-.32,3-2.24,3a1.25,1.25,0,0,1-1.25-1.25c0-.8.47-1.91,2.87-1.91.45.17.45.17.61.17Z" transform="translate(-61.07 -71)"/><path class="cls-8" d="M271.55,109.63c1-5.27,1.11-9.58,3.35-8.75A12.5,12.5,0,0,1,276,97.21h-.64c-1.44,0-2.5,1.91-2.5,1.91l.32-1.76h-3l-2.07,12.5h3.51Z" transform="translate(-61.07 -71)"/><path class="cls-9" d="M225.24,107.24a2.4,2.4,0,0,0,2.5,2.71,6.07,6.07,0,0,0,2.4-.47l.47-2.71a6.92,6.92,0,0,1-.8.16c-1.11,0-1.25-.64-1.11-1l1-5.59h1.76l.47-3h-1.6l.32-1.91" transform="translate(-61.07 -71)"/><path class="cls-9" d="M232.9,104.31c0,4.47,1.44,5.59,4,5.59a8.3,8.3,0,0,0,3.35-.47l.64-3a9.57,9.57,0,0,1-3.35.8c-3.51,0-2.87-2.5-2.87-2.5h6.52a20.7,20.7,0,0,0,.47-2.87A4.32,4.32,0,0,0,237,97.17C233.69,96.81,232.9,100.37,232.9,104.31Zm4-4.64c1.76,0,2.07,2.07,2.07,2.24h-4.15c0-.1.31-2.17,2.07-2.17Z" transform="translate(-61.07 -71)"/><path class="cls-9" d="M257.18,109.47l.64-3.51a7.85,7.85,0,0,1-2.71.8c-2.24,0-3.2-1.76-3.2-3.67,0-3.84,1.91-5.91,4.15-5.91a5.34,5.34,0,0,1,2.87,1l.47-3.35a11.25,11.25,0,0,0-3.67-.8c-3.67,0-5.75,3.2-5.75,9.26,0,4,.32,6.71,4.15,6.71A14.33,14.33,0,0,0,257.18,109.47Z" transform="translate(-61.07 -71)"/><path class="cls-9" d="M208.31,100.37a9.43,9.43,0,0,1,3.51-.64c1.11,0,2.07.16,2.07,1.11,0,.64-.16.8-.16.8H212.3c-2.71,0-5.75,1.11-5.75,4.79,0,2.87,1.91,3.51,3,3.51a4.8,4.8,0,0,0,3.35-1.44l-.16,1.25h2.87L216.9,101c0-3.67-3.2-3.84-4.47-3.84m2.4,6.87c0,.47-1.91,3-3.84,3a1.25,1.25,0,0,1-1.25-1.25c0-.8.47-1.91,2.87-1.91a13,13,0,0,0,2.25.12Z" transform="translate(-61.07 -71)"/><path class="cls-9" d="M216.46,109.47a13.52,13.52,0,0,0,3.67.32c.8,0,4.79.16,4.79-4.15,0-4-3.84-3.2-3.84-4.79,0-.8.64-1.11,1.76-1.11.47,0,2.24.16,2.24.16l.47-2.87a12.13,12.13,0,0,0-3-.32c-2.4,0-3.2,1-3.2,4.15,0,3.67,2.4,3.35,2.4,4.79,0,1-1.11,1.11-1.91,1.11" transform="translate(-61.07 -71)"/><path class="cls-9" d="M283,98.61a4.42,4.42,0,0,0-3-1.6c-2.87,0-3.84,3.51-3.84,7.66,0,2.5-.32,5.27,2.4,5.27a4.26,4.26,0,0,0,3-1.25l-.16,1.11h3.2L287,94.47m-4.15,8.31c0,1.76-1.44,4-3.2,4-1.11,0-1.76-1-1.76-2.5,0-2.5,1.11-4.15,2.5-4.15a2.5,2.5,0,0,1,2.47,2.53s0,.07,0,.1Z" transform="translate(-61.07 -71)"/><path class="cls-9" d="M195.22,109.63l1.91-11.5.32,11.5h2.24l4.15-11.5-1.76,11.5h3.35l2.5-15.33h-4l-4.47,9.42-.09-9.41H197.6l-5.44,15.33Z" transform="translate(-61.07 -71)"/><path class="cls-9" d="M241.37,109.63h3.35c1-5.27,1.11-9.58,3.35-8.75a12.5,12.5,0,0,1,1.11-3.67h-.64c-1.44,0-2.5,1.91-2.5,1.91l.32-1.76" transform="translate(-61.07 -71)"/><path class="cls-9" d="M260.22,100.37a9.43,9.43,0,0,1,3.51-.64c1.11,0,2.07.16,2.07,1.11,0,.64-.16.8-.16.8H264.2c-2.71,0-5.75,1.11-5.75,4.79,0,2.87,1.91,3.51,3,3.51a4.8,4.8,0,0,0,3.35-1.44l-.16,1.25h2.87L268.8,101c0-3.67-3.2-3.84-4.47-3.84m2.4,6.87c0,.47-1.91,3-3.84,3a1.25,1.25,0,0,1-1.25-1.25c0-.8.47-1.91,2.87-1.91a14,14,0,0,0,2.25.12Z" transform="translate(-61.07 -71)"/><path class="cls-9" d="M268.2,109.63h3.35c1-5.27,1.11-9.58,3.35-8.75A12.5,12.5,0,0,1,276,97.21h-.64c-1.44,0-2.5,1.91-2.5,1.91l.32-1.76" transform="translate(-61.07 -71)"/></svg>